<?xml version="1.0" encoding="UTF-8"?>
<svg version="1.1" xmlns="http://www.w3.org/2000/svg" width="475" height="475">
<path d="M0 0 C1.05832031 0.75152344 2.11664063 1.50304688 3.20703125 2.27734375 C9.3129082 6.7372205 14.96528316 11.5304203 20.49609375 16.68359375 C22.55685845 18.59004222 24.65386793 20.39551457 26.8125 22.1875 C65.09614116 55.59724845 90.11627486 107.29598452 98 157 C98.20496094 158.2684375 98.40992188 159.536875 98.62109375 160.84375 C107.02436801 220.4643162 91.92831581 283.03228807 57 332 C56.24847656 333.05832031 55.49695313 334.11664063 54.72265625 335.20703125 C50.2627795 341.3129082 45.4695797 346.96528316 40.31640625 352.49609375 C38.40995778 354.55685845 36.60448543 356.65386793 34.8125 358.8125 C1.40275155 397.09614116 -50.29598452 422.11627486 -100 430 C-101.2684375 430.20496094 -102.536875 430.40992188 -103.84375 430.62109375 C-163.4643162 439.02436801 -226.03228807 423.92831581 -275 389 C-276.05832031 388.24847656 -277.11664063 387.49695313 -278.20703125 386.72265625 C-284.3129082 382.2627795 -289.96528316 377.4695797 -295.49609375 372.31640625 C-297.55685845 370.40995778 -299.65386793 368.60448543 -301.8125 366.8125 C-340.09614116 333.40275155 -365.11627486 281.70401548 -373 232 C-373.30744141 230.09734375 -373.30744141 230.09734375 -373.62109375 228.15625 C-382.02436801 168.5356838 -366.92831581 105.96771193 -332 57 C-331.24847656 55.94167969 -330.49695313 54.88335937 -329.72265625 53.79296875 C-325.2627795 47.6870918 -320.4695797 42.03471684 -315.31640625 36.50390625 C-313.40995778 34.44314155 -311.60448543 32.34613207 -309.8125 30.1875 C-276.40275155 -8.09614116 -224.70401548 -33.11627486 -175 -41 C-173.09734375 -41.30744141 -173.09734375 -41.30744141 -171.15625 -41.62109375 C-111.5356838 -50.02436801 -48.96771193 -34.92831581 0 0 Z " fill="#FCFCFC" transform="translate(375,43)"/>
<path d="M0 0 C1.05832031 0.75152344 2.11664063 1.50304688 3.20703125 2.27734375 C9.3129082 6.7372205 14.96528316 11.5304203 20.49609375 16.68359375 C22.55685845 18.59004222 24.65386793 20.39551457 26.8125 22.1875 C65.09614116 55.59724845 90.11627486 107.29598452 98 157 C98.20496094 158.2684375 98.40992188 159.536875 98.62109375 160.84375 C107.02436801 220.4643162 91.92831581 283.03228807 57 332 C56.24847656 333.05832031 55.49695313 334.11664063 54.72265625 335.20703125 C50.2627795 341.3129082 45.4695797 346.96528316 40.31640625 352.49609375 C38.40995778 354.55685845 36.60448543 356.65386793 34.8125 358.8125 C1.40275155 397.09614116 -50.29598452 422.11627486 -100 430 C-101.2684375 430.20496094 -102.536875 430.40992188 -103.84375 430.62109375 C-163.4643162 439.02436801 -226.03228807 423.92831581 -275 389 C-276.05832031 388.24847656 -277.11664063 387.49695313 -278.20703125 386.72265625 C-284.3129082 382.2627795 -289.96528316 377.4695797 -295.49609375 372.31640625 C-297.55685845 370.40995778 -299.65386793 368.60448543 -301.8125 366.8125 C-340.09614116 333.40275155 -365.11627486 281.70401548 -373 232 C-373.30744141 230.09734375 -373.30744141 230.09734375 -373.62109375 228.15625 C-382.02436801 168.5356838 -366.92831581 105.96771193 -332 57 C-331.24847656 55.94167969 -330.49695313 54.88335937 -329.72265625 53.79296875 C-325.2627795 47.6870918 -320.4695797 42.03471684 -315.31640625 36.50390625 C-313.40995778 34.44314155 -311.60448543 32.34613207 -309.8125 30.1875 C-276.40275155 -8.09614116 -224.70401548 -33.11627486 -175 -41 C-173.09734375 -41.30744141 -173.09734375 -41.30744141 -171.15625 -41.62109375 C-111.5356838 -50.02436801 -48.96771193 -34.92831581 0 0 Z M-209.72607422 4.85302734 C-212.886758 6.44728249 -216.07841912 7.50410111 -219.4375 8.625 C-234.48315931 13.99831991 -247.72016281 22.93020117 -260 33 C-260.85980469 33.65742187 -261.71960938 34.31484375 -262.60546875 34.9921875 C-275.30611377 44.86833204 -287.66711839 56.88244666 -297 70 C-297.40202637 70.55268555 -297.80405273 71.10537109 -298.21826172 71.67480469 C-307.18056301 84.03592407 -315.98729446 97.31546261 -321.18359375 111.76171875 C-321.85732325 113.6088336 -322.63620138 115.4172291 -323.44140625 117.2109375 C-325.22911213 121.34206977 -326.36274042 125.59023354 -327.5 129.9375 C-328.67964283 134.42394804 -329.8801265 138.81423128 -331.5859375 143.1328125 C-332.96876834 146.70010883 -333.6365435 150.13197977 -334.125 153.9375 C-334.90620872 159.90620872 -334.90620872 159.90620872 -336 161 C-338.3665915 171.36362053 -338.35674674 181.80853762 -338.3125 192.375 C-338.31167419 193.2061734 -338.31084839 194.0373468 -338.30999756 194.89370728 C-339.32616273 217.37796034 -339.32616273 217.37796034 -333 238 C-332.39331055 240.03027344 -332.39331055 240.03027344 -331.88671875 242.359375 C-331.59643799 243.65210327 -331.59643799 243.65210327 -331.30029297 244.97094727 C-330.99696045 246.34657837 -330.99696045 246.34657837 -330.6875 247.75 C-327.42210311 263.76601877 -327.42210311 263.76601877 -320 278 C-319.23868658 279.68539039 -318.53057274 281.39573332 -317.875 283.125 C-316.55001458 286.61215468 -316.55001458 286.61215468 -315 290 C-314.34 290 -313.68 290 -313 290 C-312.690625 291.11375 -312.38125 292.2275 -312.0625 293.375 C-311.17673517 296.7945155 -311.17673517 296.7945155 -310 299 C-309.34 299 -308.68 299 -308 299 C-307.61521484 300.32451172 -307.61521484 300.32451172 -307.22265625 301.67578125 C-302.39292228 314.80710267 -289.47828973 326.91377332 -280 337 C-279.44989258 337.58942383 -278.89978516 338.17884766 -278.33300781 338.78613281 C-256.63703231 361.85189168 -224.61311291 384.60759801 -192.55859375 389.5390625 C-189.35793473 390.11566977 -186.40913981 391.09562781 -183.36328125 392.21875 C-168.64308007 397.08493221 -153.06018934 397.35316797 -137.70703125 397.31567383 C-135.00219748 397.31250258 -132.29845078 397.33613057 -129.59375 397.36132812 C-114.00700612 397.42001489 -99.76163958 395.2612297 -84.875 390.5 C-83.91335938 390.20480469 -82.95171875 389.90960938 -81.9609375 389.60546875 C-77.98075074 388.36439403 -74.07195322 387.09576364 -70.2578125 385.40625 C-67 384 -67 384 -63.8359375 383.2109375 C-58.05168191 381.63692471 -52.86286496 378.46449609 -47.625 375.625 C-46.4712085 375.00085205 -45.31741699 374.3767041 -44.12866211 373.73364258 C-34.55346348 368.46678236 -25.66040797 362.64758377 -17 356 C-16.07316406 355.31421875 -15.14632813 354.6284375 -14.19140625 353.921875 C-0.11570878 343.03838289 12.86647354 329.61915556 23 315 C23.39413086 314.44489746 23.78826172 313.88979492 24.19433594 313.31787109 C29.57950909 305.7169014 34.35527614 297.83119443 38.875 289.6875 C39.32738037 288.87595459 39.77976074 288.06440918 40.24584961 287.22827148 C42.89330821 282.3654614 45.12699419 277.46476138 47.10375977 272.29248047 C48.01299762 269.96675357 49.01736714 267.70499069 50.0625 265.4375 C52.03418829 261.05339309 53.60106163 256.59651179 55 252 C55.31453125 250.99710937 55.6290625 249.99421875 55.953125 248.9609375 C60.90145519 231.32578155 61.37647051 212.98875923 61.3125 194.8125 C61.30986145 193.90560425 61.3072229 192.9987085 61.30450439 192.06433105 C61.27937612 186.84921087 61.20135152 181.63774512 61.06356812 176.42437744 C61.02214912 174.84472912 60.98640461 173.2649186 60.95718384 171.68499756 C60.74111778 161.12755811 59.01639536 152.06440243 55.5625 142 C54.74812326 139.54271789 53.93684617 137.08440601 53.12890625 134.625 C52.75024414 133.48297119 52.37158203 132.34094238 51.98144531 131.16430664 C51.13793307 128.44471406 50.46156459 125.78323144 49.89453125 122.99609375 C49.15015726 119.34465466 47.90902017 116.35785332 46.125 113.0625 C44.20071567 109.39940453 42.48663649 105.8215086 41.0625 101.9375 C38.80767399 96.11949215 35.46617637 91.16043774 32 86 C31.03513672 84.50919922 31.03513672 84.50919922 30.05078125 82.98828125 C22.4366126 71.30524449 13.57958947 61.07964992 4 51 C3.20207031 50.15953125 2.40414063 49.3190625 1.58203125 48.453125 C-3.59340565 43.14028712 -9.11731018 38.50774161 -15 34 C-15.89203125 33.29101562 -16.7840625 32.58203125 -17.703125 31.8515625 C-23.60962151 27.25224145 -29.68359158 23.24203097 -36.125 19.4375 C-36.87209229 18.9955127 -37.61918457 18.55352539 -38.38891602 18.09814453 C-41.9596826 15.81309154 -41.9596826 15.81309154 -46 15 C-46 14.34 -46 13.68 -46 13 C-46.8353125 12.63648438 -46.8353125 12.63648438 -47.6875 12.265625 C-51.37158727 10.6476137 -55.01020507 9.01637851 -58.5625 7.125 C-69.12543998 1.83307165 -79.84343361 -1.51883939 -91.4765625 -3.359375 C-94.81981362 -3.96723884 -97.7885037 -4.91149802 -101 -6 C-134.54709734 -14.13489123 -179.05591382 -11.25932287 -209.72607422 4.85302734 Z " fill="#FDFDFD" transform="translate(375,43)"/>
<path d="M0 0 C0.75151337 -0.00508575 1.50302673 -0.01017151 2.27731323 -0.01541138 C4.45980005 -0.02727514 6.64172502 -0.02402842 8.82421875 -0.015625 C10.73400513 -0.01224121 10.73400513 -0.01224121 12.68237305 -0.00878906 C16.47476968 0.26156809 19.69609995 1.10858927 23.3125 2.25 C24.95161346 2.50588516 26.59805635 2.72251289 28.25 2.875 C29.40822266 2.98714844 29.40822266 2.98714844 30.58984375 3.1015625 C31.44255859 3.17503906 31.44255859 3.17503906 32.3125 3.25 C32.3125 3.91 32.3125 4.57 32.3125 5.25 C33.50875 5.20875 34.705 5.1675 35.9375 5.125 C45.14159901 6.14444135 53.99322248 14.13462873 59.625 21.125 C64.53494262 27.82824661 64.29324994 36.22034649 63.3125 44.25 C62.15094399 49.09898084 60.28498859 53.67805322 58.3125 58.25 C57.6525 58.25 56.9925 58.25 56.3125 58.25 C56.09207031 58.93964844 55.87164062 59.62929687 55.64453125 60.33984375 C53.97078349 63.99656541 51.62068449 66.80955402 49 69.8125 C48.46947021 70.42383789 47.93894043 71.03517578 47.39233398 71.66503906 C35.83965215 84.74329122 22.30859197 95.88818749 7.359375 104.875 C5.18693389 106.09022884 5.18693389 106.09022884 4.3125 108.25 C5.54484375 108.21519531 6.7771875 108.18039063 8.046875 108.14453125 C19.00376194 107.92953822 29.38628181 107.95294621 39.3125 113.25 C39.3125 113.91 39.3125 114.57 39.3125 115.25 C40.2715625 115.7140625 40.2715625 115.7140625 41.25 116.1875 C43.3125 117.25 43.3125 117.25 44.3125 118.25 C52.91745578 119.07739959 60.8721643 116.19040103 68.69140625 112.7734375 C72.6367744 111.11357388 76.57883828 109.86503588 80.6875 108.6875 C81.4312085 108.47134033 82.17491699 108.25518066 82.94116211 108.0324707 C88.02979077 106.57087289 93.11898522 105.28870296 98.3125 104.25 C98.02822583 105.83467728 97.73475182 107.4177057 97.4375 109 C97.19386719 110.32257813 97.19386719 110.32257813 96.9453125 111.671875 C96.32195045 114.21149816 95.69650057 116.03772359 94.3125 118.25 C92.51928711 119.15966797 92.51928711 119.15966797 90.33984375 119.7421875 C89.5303125 119.9695459 88.72078125 120.1969043 87.88671875 120.43115234 C86.58154297 120.77460693 86.58154297 120.77460693 85.25 121.125 C83.4351416 121.63164797 81.62135265 122.14214074 79.80859375 122.65625 C78.89190918 122.91535156 77.97522461 123.17445313 77.03076172 123.44140625 C72.17627115 124.88545805 67.4340904 126.63899425 62.69506836 128.42138672 C59.30626281 129.66806528 56.98270125 130.25 53.3125 130.25 C53.46847656 131.23613281 53.62445313 132.22226563 53.78515625 133.23828125 C56.65258232 153.62716287 51.23739458 171.51438957 41.3125 189.25 C40.6525 189.25 39.9925 189.25 39.3125 189.25 C38.91611328 190.34054687 38.91611328 190.34054687 38.51171875 191.453125 C36.48496683 196.1800122 33.34438571 200.12068327 30.3125 204.25 C29.50619141 205.35214844 29.50619141 205.35214844 28.68359375 206.4765625 C24.06473029 212.5979478 18.93432133 218.2325313 13.67382812 223.80078125 C12.44003459 225.11423147 11.22658697 226.44672048 10.015625 227.78125 C-3.57363189 242.21397801 -22.20230154 254.09296878 -40.6875 261.25 C-41.6775 261.25 -42.6675 261.25 -43.6875 261.25 C-43.6875 261.91 -43.6875 262.57 -43.6875 263.25 C-47.86450658 264.74943826 -52.00488543 265.80715067 -56.34375 266.6875 C-58.77821819 267.22954146 -58.77821819 267.22954146 -61.421875 268.2109375 C-73.21300289 271.96266001 -85.90425935 272.54546823 -98.1875 272.625 C-99.24807617 272.63869629 -100.30865234 272.65239258 -101.40136719 272.66650391 C-110.27811913 272.61526524 -119.56235175 271.96825955 -126.6875 266.25 C-127.8321875 265.8478125 -127.8321875 265.8478125 -129 265.4375 C-133.86344429 263.28853624 -137.43809448 259.90243956 -140.625 255.6875 C-143.21249133 247.31620451 -142.57443668 239.81610709 -138.625 232 C-135.54754571 226.26779295 -131.97921657 221.1307757 -127.6875 216.25 C-126.48480469 214.85007812 -126.48480469 214.85007812 -125.2578125 213.421875 C-112.57474757 198.9369984 -96.95448309 187.05889952 -80.29614258 177.46948242 C-77.76858127 175.55338457 -77.24953484 173.27093729 -76.6875 170.25 C-76.0275 170.25 -75.3675 170.25 -74.6875 170.25 C-74.44 169.05375 -74.1925 167.8575 -73.9375 166.625 C-72.49321838 160.08386947 -70.57033085 153.67538877 -68.6875 147.25 C-73.1425 148.24 -73.1425 148.24 -77.6875 149.25 C-77.6875 149.91 -77.6875 150.57 -77.6875 151.25 C-80.3275 151.58 -82.9675 151.91 -85.6875 152.25 C-86.99242469 148.09055256 -87.80769705 144.59963091 -87.6875 140.25 C-79.24192975 135.53742475 -70.88256467 131.31502156 -61.6875 128.25 C-61.16263351 126.25550734 -60.66553817 124.25134467 -60.2734375 122.2265625 C-58.28658633 112.13335855 -55.54749434 102.40133854 -51.98046875 92.75390625 C-49.00287301 84.68471175 -46.16783166 76.56497043 -44.1875 68.1875 C-39.53613417 48.81994848 -39.53613417 48.81994848 -33.6875 44.25 C-30.47949219 43.79589844 -30.47949219 43.79589844 -26.734375 43.859375 C-26.07415344 43.86503479 -25.41393188 43.87069458 -24.73370361 43.87652588 C-22.63421737 43.8988377 -20.5364663 43.94901686 -18.4375 44 C-17.0104414 44.02007206 -15.58335592 44.03832161 -14.15625 44.0546875 C-10.66610707 44.09868307 -7.17697301 44.16767124 -3.6875 44.25 C-4.84783874 47.73101621 -6.4497549 48.69776825 -9.25390625 50.91015625 C-11.2217398 52.74930314 -11.95658675 54.69180363 -12.6875 57.25 C-13.3475 57.25 -14.0075 57.25 -14.6875 57.25 C-14.93757812 58.32894531 -15.18765625 59.40789062 -15.4453125 60.51953125 C-16.84008493 66.09494408 -18.71354124 71.49948646 -20.5625 76.9375 C-23.39281638 85.34260491 -26.15572731 93.74960378 -28.6875 102.25 C-28.98527344 103.23871094 -29.28304687 104.22742188 -29.58984375 105.24609375 C-30.2922223 107.57980311 -30.99155487 109.91436595 -31.6875 112.25 C-30.69169922 111.74339844 -30.69169922 111.74339844 -29.67578125 111.2265625 C-28.79277344 110.78054687 -27.90976563 110.33453125 -27 109.875 C-26.12988281 109.43414062 -25.25976562 108.99328125 -24.36328125 108.5390625 C-21.6875 107.25 -21.6875 107.25 -19.10546875 106.3359375 C-16.2720213 105.06340375 -14.84410422 103.47474971 -12.6875 101.25 C-10.49609754 99.65198737 -8.29740995 98.09622019 -6.0625 96.5625 C-0.65747998 92.78229332 4.31837129 88.77295799 9.14453125 84.26171875 C11.02146118 82.52006305 12.94190516 80.91346035 14.9375 79.3125 C18.64053472 76.18724375 21.48365438 72.45390812 24.41796875 68.6171875 C26.3125 66.25 26.3125 66.25 28.4609375 64.13671875 C30.4948889 62.06414802 31.41591392 60.05426778 32.453125 57.36328125 C33.3125 55.25 33.3125 55.25 34.609375 52.66796875 C37.46865675 46.92531018 39.79835066 41.73371197 38.3125 35.25 C36.22536153 32.44315861 34.23073611 31.19549074 31.3125 29.25 C31.3125 28.59 31.3125 27.93 31.3125 27.25 C16.82247003 24.13061855 0.50047541 25.42678784 -13.6875 29.25 C-15.21002359 29.53615605 -16.73358018 29.81683987 -18.2578125 30.09375 C-24.55102183 31.32442729 -30.54953795 33.35103795 -36.625 35.375 C-38.84113375 36.11074113 -41.05852764 36.84270073 -43.27734375 37.5703125 C-44.24534912 37.89273926 -45.21335449 38.21516602 -46.21069336 38.54736328 C-48.6875 39.25 -48.6875 39.25 -51.6875 39.25 C-52.0175 40.24 -52.3475 41.23 -52.6875 42.25 C-55.3828125 43.53125 -55.3828125 43.53125 -58.8125 44.75 C-59.98941406 45.17796875 -61.16632813 45.6059375 -62.37890625 46.046875 C-64.01666016 46.64242187 -64.01666016 46.64242187 -65.6875 47.25 C-67.04764501 47.81925451 -68.40359116 48.39897723 -69.75 49 C-72.6875 50.25 -72.6875 50.25 -75.0625 50.75 C-75.59875 50.915 -76.135 51.08 -76.6875 51.25 C-77.0175 52.24 -77.3475 53.23 -77.6875 54.25 C-79.25439658 54.91157856 -80.82461447 55.56588236 -82.40625 56.19140625 C-91.64776345 60.47984828 -99.3896172 67.27566865 -106.6875 74.25 C-107.48285156 74.95898438 -108.27820313 75.66796875 -109.09765625 76.3984375 C-120.53377983 86.97541991 -122.72791824 98.35993825 -123.6875 113.25 C-131.63408019 113.42700472 -131.63408019 113.42700472 -135.6875 110.25 C-137.05389342 108.6103279 -138.39263179 106.94672386 -139.6875 105.25 C-140.3475 104.92 -141.0075 104.59 -141.6875 104.25 C-145.38147674 95.51759562 -144.77399082 84.06560097 -141.90625 75.1171875 C-130.05612249 47.2390029 -103.55674469 28.27492114 -76.6875 16.25 C-74.54120628 15.42925147 -72.40348009 14.71479403 -70.203125 14.0546875 C-67.46518698 13.17888745 -64.7997144 12.15098118 -62.12084961 11.11035156 C-54.67461965 8.2240653 -47.25643616 5.9276203 -39.50390625 4.01171875 C-36.80381426 3.53230526 -36.80381426 3.53230526 -35.6875 2.25 C-23.91334334 0.03121119 -11.93703033 0.03310957 0 0 Z " fill="#060606" transform="translate(273.6875,98.75)"/>
<path d="M0 0 C2.1308995 0.68460269 4.195512 1.06779236 6.40625 1.40258789 C11.72803536 2.39307791 16.70767554 4.1821247 21.78125 6.02758789 C23.00593994 6.46603027 23.00593994 6.46603027 24.25537109 6.91333008 C28.98061627 8.67187578 32.88157399 10.73426975 37.03125 13.65258789 C40.2561708 14.89582936 40.2561708 14.89582936 43.03125 15.65258789 C43.03125 16.31258789 43.03125 16.97258789 43.03125 17.65258789 C43.670625 17.87946289 44.31 18.10633789 44.96875 18.34008789 C58.92220138 24.32013848 70.70369192 33.74471058 82.03125 43.65258789 C83.12566406 44.5787793 83.12566406 44.5787793 84.2421875 45.52368164 C105.10644792 63.27959306 124.2876987 87.58240116 134.12890625 113.39086914 C135.03954215 115.80253648 135.03954215 115.80253648 136.59375 118.52758789 C137.93161429 121.43598852 138.63974575 123.9518029 139.36328125 127.05493164 C140.42559308 131.40900158 141.6317127 135.65929589 143.0390625 139.91430664 C143.38582031 140.97198242 143.73257812 142.0296582 144.08984375 143.11938477 C144.79573796 145.25128871 145.51433018 147.37903379 146.24609375 149.50219727 C149.17516287 158.55817688 149.82252059 167.22919191 150.03125 176.65258789 C150.05304321 177.45507965 150.07483643 178.25757141 150.09729004 179.0843811 C150.25859804 185.21131675 150.3259183 191.33615476 150.34375 197.46508789 C150.34703308 198.39792603 150.35031616 199.33076416 150.35369873 200.29187012 C150.37440038 218.58040742 149.54548181 237.06665942 144.03125 254.65258789 C143.48017578 256.45856445 143.48017578 256.45856445 142.91796875 258.30102539 C140.86697639 264.67446745 138.84659069 270.73303936 135.2421875 276.42993164 C133.87347041 278.80037112 133.87347041 278.80037112 132.796875 282.17211914 C130.68868544 287.94791685 127.51978403 293.12168065 124.40625 298.40258789 C123.77887939 299.47081787 123.15150879 300.53904785 122.50512695 301.63964844 C118.09975292 309.0525211 113.50036963 315.97627295 108.03125 322.65258789 C107.41121094 323.47243164 106.79117187 324.29227539 106.15234375 325.13696289 C91.12609913 344.54463696 72.33392051 360.56603903 51.03125 372.65258789 C49.74831055 373.38106934 49.74831055 373.38106934 48.43945312 374.12426758 C45.51889384 375.77194147 42.58965535 377.40290293 39.65625 379.02758789 C38.24641846 379.81456055 38.24641846 379.81456055 36.80810547 380.61743164 C31.93223992 383.28189607 27.45778628 385.30918927 22.03125 386.65258789 C20.06392395 387.40017179 18.10545192 388.17144732 16.15625 388.96508789 C11.0806955 390.93375262 5.98898774 392.70122758 0.78125 394.27758789 C0.1639502 394.4713501 -0.45334961 394.6651123 -1.08935547 394.86474609 C-15.04079199 398.97640043 -28.78909799 400.12359948 -43.26171875 399.98876953 C-45.96644961 399.96510801 -48.67019097 399.96824807 -51.375 399.97485352 C-68.29166843 399.94849997 -85.7181335 399.11224041 -101.56640625 392.58227539 C-104.89931568 391.29246654 -108.23683383 390.90716078 -111.76171875 390.41040039 C-128.55371192 386.44249945 -145.4557748 376.82421459 -159.35791016 366.81225586 C-160.88647803 365.71181672 -162.43304553 364.63650734 -163.98046875 363.56274414 C-170.41616243 359.02993339 -176.27826448 354.08653513 -181.96875 348.65258789 C-182.86883789 347.79334717 -182.86883789 347.79334717 -183.78710938 346.91674805 C-192.50332196 338.54255861 -200.59533602 329.99517814 -207.77685547 320.26342773 C-208.94972352 318.67830209 -210.14853289 317.11247723 -211.34765625 315.54711914 C-214.80657851 310.96203615 -217.34315236 307.21682259 -218.96875 301.65258789 C-219.62875 301.65258789 -220.28875 301.65258789 -220.96875 301.65258789 C-223.96875 294.90258789 -223.96875 294.90258789 -223.96875 292.65258789 C-224.62875 292.65258789 -225.28875 292.65258789 -225.96875 292.65258789 C-230.11365011 284.50571525 -233.67553316 276.1777702 -236.96875 267.65258789 C-237.2265625 266.99000977 -237.484375 266.32743164 -237.75 265.64477539 C-239.95491751 259.53331924 -241.22987462 253.21450342 -242.5234375 246.85961914 C-242.76126953 245.72459961 -242.76126953 245.72459961 -243.00390625 244.56665039 C-243.1419165 243.88554199 -243.27992676 243.20443359 -243.42211914 242.50268555 C-243.96067191 240.34381757 -243.96067191 240.34381757 -245.96875 237.65258789 C-249.67991928 223.99627839 -249.26729662 209.07166912 -249.28125 195.02758789 C-249.28465393 194.21470306 -249.28805786 193.40181824 -249.29156494 192.56430054 C-249.32025682 180.58574372 -248.89772386 169.09359983 -244.96875 157.65258789 C-244.66420743 156.03356673 -244.39323953 154.40786752 -244.15625 152.77758789 C-242.96278395 145.86112323 -240.77137004 139.29484526 -238.60351562 132.6394043 C-237.31025575 128.59150088 -236.14490046 124.50312421 -234.9609375 120.42211914 C-233.96875 117.65258789 -233.96875 117.65258789 -232.6015625 115.41430664 C-231.12525525 112.91729892 -230.12760453 110.60869294 -229.09375 107.91040039 C-227.11714261 102.85095931 -224.70955849 98.21094005 -221.96875 93.52758789 C-221.49236084 92.71209473 -221.01597168 91.89660156 -220.52514648 91.05639648 C-212.91973885 78.2951795 -203.82692882 66.87706028 -193.49414062 56.22924805 C-191.95478068 54.63814905 -190.43838203 53.027169 -188.921875 51.41430664 C-177.77053577 39.73153503 -164.89417192 29.82950458 -150.96875 21.65258789 C-150.36708008 21.29181152 -149.76541016 20.93103516 -149.14550781 20.55932617 C-141.66037384 16.08632226 -134.48526063 12.00450921 -126.0078125 9.69946289 C-123.25276409 8.75042308 -120.92346264 7.62068794 -118.3515625 6.26977539 C-85.59896002 -10.42022476 -34.53083178 -12.49407311 0 0 Z M-85.96875 16.65258789 C-87.42130923 16.9528519 -88.88009529 17.22466807 -90.34375 17.46508789 C-95.04375631 18.37085542 -99.58288907 19.63236994 -104.15625 21.02758789 C-105.15374268 21.32306519 -105.15374268 21.32306519 -106.17138672 21.62451172 C-109.56481448 22.68469443 -112.5619679 23.90313985 -115.625 25.71899414 C-118.62000026 27.45091602 -120.97182729 28.35708941 -124.28125 29.21508789 C-143.24280632 35.27423183 -159.86519396 50.12587355 -173.96875 63.65258789 C-174.50532227 64.16192871 -175.04189453 64.67126953 -175.59472656 65.19604492 C-186.32509999 75.42549957 -195.0527414 86.28937968 -202.84375 98.90258789 C-203.29637207 99.63501709 -203.74899414 100.36744629 -204.21533203 101.12207031 C-206.84839394 105.49232406 -209.07178863 109.89968398 -211.04199219 114.60693359 C-211.99787699 116.71688059 -213.11793234 118.62670198 -214.34375 120.59008789 C-222.97789217 135.80643103 -225.83962516 154.31917671 -227.9675293 171.40356445 C-228.08394775 172.32621094 -228.20036621 173.24885742 -228.3203125 174.19946289 C-228.42166504 175.03316406 -228.52301758 175.86686523 -228.62744141 176.72583008 C-228.96875 178.65258789 -228.96875 178.65258789 -229.96875 179.65258789 C-230.09489163 182.16701114 -230.15745556 184.6523276 -230.171875 187.16821289 C-230.17757507 187.9350238 -230.18327515 188.70183472 -230.18914795 189.49188232 C-230.19862338 191.12616592 -230.20514196 192.76046884 -230.20898438 194.39477539 C-230.2185486 196.85086818 -230.24948423 199.30607196 -230.28125 201.76196289 C-230.34407276 211.18280202 -229.46093732 219.51009844 -226.96875 228.65258789 C-226.57856459 230.91751027 -226.21371468 233.18746116 -225.90625 235.46508789 C-224.89443542 242.36533155 -223.44583509 248.67848968 -220.875 255.19555664 C-219.91819693 257.78964773 -219.10063109 260.41600268 -218.27905273 263.05541992 C-216.00990058 270.24092015 -213.09199891 276.34352029 -208.96875 282.65258789 C-207.68478532 284.76967954 -206.41422348 286.89494983 -205.15625 289.02758789 C-204.57230469 290.00469727 -203.98835938 290.98180664 -203.38671875 291.98852539 C-202.1677239 294.27875813 -201.43071934 296.12075592 -200.96875 298.65258789 C-200.30875 298.65258789 -199.64875 298.65258789 -198.96875 298.65258789 C-198.73929688 299.35512695 -198.50984375 300.05766602 -198.2734375 300.78149414 C-196.71395853 304.2132817 -194.56047335 306.79053557 -192.09375 309.59008789 C-191.0948943 310.74229488 -190.09620202 311.89464355 -189.09765625 313.04711914 C-188.58090332 313.63960449 -188.06415039 314.23208984 -187.53173828 314.8425293 C-185.99724613 316.61958721 -184.49295625 318.41799463 -182.99609375 320.22680664 C-173.94643089 331.1157103 -164.13463304 340.25718158 -152.71875 348.65258789 C-151.60185791 349.48125366 -151.60185791 349.48125366 -150.46240234 350.32666016 C-146.92285248 352.86586824 -143.67401361 354.90359059 -139.546875 356.34008789 C-135.96875 357.65258789 -135.96875 357.65258789 -133.96875 360.65258789 C-132.02022008 361.4121843 -130.06743846 362.16364516 -128.08984375 362.84399414 C-125.96875 363.65258789 -125.96875 363.65258789 -122.84375 365.52758789 C-117.8614446 368.48548026 -112.35967774 370.175128 -106.88671875 372.00268555 C-105.01982918 372.63527975 -103.16584417 373.3055634 -101.3125 373.97680664 C-83.8227969 379.99340905 -66.00685223 380.91870474 -47.65625 380.90258789 C-46.89088928 380.90199371 -46.12552856 380.90139954 -45.3369751 380.90078735 C-37.40523339 381.37615783 -37.40523339 381.37615783 -29.96875 379.65258789 C-28.53895894 379.43491659 -27.10243055 379.2605517 -25.6640625 379.10961914 C-9.51403236 377.26364906 5.93750894 374.01148952 20.62890625 366.81665039 C24.02465683 365.17122979 27.52189131 363.82104152 31.03515625 362.44946289 C33.05697059 361.67461015 33.05697059 361.67461015 35.03125 360.65258789 C35.03125 359.99258789 35.03125 359.33258789 35.03125 358.65258789 C35.8871875 358.40379883 36.743125 358.15500977 37.625 357.89868164 C58.03106944 350.43361725 78.06920137 330.5171888 91.03125 313.65258789 C91.85367187 312.63422852 92.67609375 311.61586914 93.5234375 310.56665039 C103.83800783 298.66255116 103.83800783 298.66255116 109.03125 284.65258789 C109.69125 284.65258789 110.35125 284.65258789 111.03125 284.65258789 C111.34578125 283.87915039 111.6603125 283.10571289 111.984375 282.30883789 C115.89972322 272.77991813 115.89972322 272.77991813 118.03125 268.84008789 C120.0096213 265.00496647 121.40141599 260.98216069 122.78125 256.90258789 C123.00425781 256.25185303 123.22726562 255.60111816 123.45703125 254.93066406 C124.54683542 251.61884171 125.03125 249.18663633 125.03125 245.65258789 C125.69125 245.65258789 126.35125 245.65258789 127.03125 245.65258789 C127.15242188 244.55043945 127.27359375 243.44829102 127.3984375 242.31274414 C127.56767677 240.78018857 127.73694947 239.24763669 127.90625 237.71508789 C127.98488281 236.99901367 128.06351562 236.28293945 128.14453125 235.54516602 C128.22832031 234.7878418 128.31210937 234.03051758 128.3984375 233.25024414 C128.49133057 232.39978516 128.58422363 231.54932617 128.67993164 230.6730957 C128.94442802 228.39905179 129.23443651 226.12795325 129.53686523 223.85864258 C130.90116845 213.46797006 131.39590523 203.25311912 131.34375 192.77758789 C131.34159485 191.99199493 131.3394397 191.20640198 131.33721924 190.39700317 C131.26051085 172.93032647 129.09882788 157.58518366 123.43359375 141.01977539 C122.42653198 138.04201231 121.67405166 135.11269253 121.0546875 132.03149414 C120.18292591 127.90214422 118.69175186 124.46422889 116.71875 120.71508789 C116.08031132 119.49264978 115.4422916 118.26999277 114.8046875 117.04711914 C114.21945312 115.92692383 113.63421875 114.80672852 113.03125 113.65258789 C112.30076194 112.06986376 111.57146114 110.48659072 110.84375 108.90258789 C108.34719 103.90946789 105.29694719 99.30018371 102.21875 94.65258789 C101.73317627 93.91685547 101.24760254 93.18112305 100.74731445 92.4230957 C94.35345314 82.92004201 87.13436285 74.3638893 79.03125 66.27758789 C78.20818359 65.45613281 77.38511719 64.63467773 76.53710938 63.78833008 C69.22644382 56.62117644 61.49983506 50.38832005 53.03125 44.65258789 C52.4630957 44.26586914 51.89494141 43.87915039 51.30957031 43.48071289 C46.07710414 39.43322066 46.07710414 39.43322066 40.03125 37.65258789 C40.03125 36.99258789 40.03125 36.33258789 40.03125 35.65258789 C33.76653663 32.47394022 27.53317591 29.32302175 21.03125 26.65258789 C20.19795166 26.28810547 19.36465332 25.92362305 18.50610352 25.5480957 C-12.06151585 12.35934698 -53.79229079 5.7534094 -85.96875 16.65258789 Z " fill="#080808" transform="translate(285.96875,40.347412109375)"/>
<path d="M0 0 C-0.16999914 8.85540966 -1.96261079 15.18699744 -6 23 C-6.57872617 24.23748537 -7.15267247 25.47721365 -7.72265625 26.71875 C-15.00087419 42.3162983 -25.53307401 55.27405738 -37 68 C-38.10408203 69.23169922 -38.10408203 69.23169922 -39.23046875 70.48828125 C-48.53693108 80.31855947 -59.97671863 87.74096225 -71.78125 94.21484375 C-74.70410581 95.83589363 -77.49925173 97.57330551 -80.3125 99.375 C-84.14528491 101.70854499 -87.4849325 102.75410442 -91.87890625 103.515625 C-94.07301656 104.01667413 -95.61376883 104.76631268 -97.5625 105.875 C-108.03562503 111.30550927 -119.02275328 112.37078006 -130.625 112.4375 C-131.65625 112.44749023 -132.6875 112.45748047 -133.75 112.46777344 C-140.18578026 112.39387176 -144.84398764 111.73521071 -149.875 107.375 C-152.03258605 102.82009611 -151.75585374 98.40753414 -150.26171875 93.6484375 C-143.38153945 78.28687354 -127.35105807 63.37621517 -113 55 C-112.34 55 -111.68 55 -111 55 C-111.875 62.875 -111.875 62.875 -113 64 C-113.15620555 65.41327947 -113.25056173 66.8335459 -113.31640625 68.25390625 C-113.37924805 69.53491211 -113.37924805 69.53491211 -113.44335938 70.84179688 C-113.48267578 71.73962891 -113.52199219 72.63746094 -113.5625 73.5625 C-113.62727539 74.91504883 -113.62727539 74.91504883 -113.69335938 76.29492188 C-113.79978142 78.52978485 -113.90179988 80.76476308 -114 83 C-113.34 83 -112.68 83 -112 83 C-112 83.66 -112 84.32 -112 85 C-111.01 85.33 -110.02 85.66 -109 86 C-109 86.66 -109 87.32 -109 88 C-103.39 88.33 -97.78 88.66 -92 89 C-91.9071875 85.349375 -91.9071875 85.349375 -91.8125 81.625 C-91.34906275 71.19766193 -88.87166981 60.99456719 -84.90625 51.3359375 C-83.8802882 48.69143252 -83.39592759 46.17179352 -82.9375 43.375 C-82.45135275 40.44204554 -81.94215266 37.82645799 -81 35 C-78.96557617 33.63720703 -78.96557617 33.63720703 -76.29296875 32.2578125 C-74.83250122 31.49791016 -74.83250122 31.49791016 -73.3425293 30.72265625 C-72.30136963 30.19542969 -71.26020996 29.66820312 -70.1875 29.125 C-69.1353833 28.58488281 -68.0832666 28.04476563 -66.99926758 27.48828125 C-60.10929355 23.9827904 -53.23236559 20.73780401 -46 18 C-44.35343554 17.33514116 -42.70759622 16.66848354 -41.0625 16 C-38.35577862 14.91731145 -35.64287815 13.86726444 -32.91015625 12.8515625 C-26.28991062 10.37979422 -20.02010543 7.5853848 -13.734375 4.359375 C-4.96551724 0 -4.96551724 0 0 0 Z " fill="#F9F9F9" transform="translate(301,240)"/>
<path d="M0 0 C0.73355713 -0.01385742 1.46711426 -0.02771484 2.22290039 -0.04199219 C7.2863513 0.00214387 10.92641757 0.8985851 15.375 3.375 C16.8125 5.5625 16.8125 5.5625 17.375 7.375 C11.38350762 10.61040589 5.27343184 12.90800665 -1.15234375 15.1484375 C-7.04137115 17.22847643 -12.81075328 19.55100677 -18.5 22.125 C-21.625 23.375 -21.625 23.375 -25.625 23.375 C-25.955 24.365 -26.285 25.355 -26.625 26.375 C-29.18997048 27.51104229 -31.66609003 28.47489245 -34.3125 29.375 C-35.73420998 29.87175763 -37.15480537 30.37171769 -38.57421875 30.875 C-39.60554932 31.24044922 -39.60554932 31.24044922 -40.65771484 31.61328125 C-42.89183407 32.44090978 -42.89183407 32.44090978 -45.95703125 34.0625 C-48.625 35.375 -48.625 35.375 -51.625 35.375 C-48.52446841 12.73296013 -48.52446841 12.73296013 -43.97265625 9.03125 C-41.87200172 8.24081966 -39.82415077 7.81855753 -37.625 7.375 C-35.97310092 6.72350845 -34.32766461 6.05549383 -32.6875 5.375 C-22.13261701 1.59501436 -11.16795548 0.12489792 0 0 Z " fill="#EEEEEE" transform="translate(278.625,221.625)"/>
<path d="M0 0 C0.33 0 0.66 0 1 0 C1.31927064 1.45686603 1.62990834 2.91562351 1.9375 4.375 C2.11152344 5.18710938 2.28554688 5.99921875 2.46484375 6.8359375 C3.996688 15.89282688 4.18633909 24.92105729 4.18530273 34.08447266 C4.18748204 36.23230036 4.20568333 38.3796068 4.22460938 40.52734375 C4.27220031 52.28483514 3.18467326 63.62616693 0 75 C-0.33 75 -0.66 75 -1 75 C-1.1804128 70.03864794 -0.95916786 65.34457805 -0.2870636 60.42034912 C0.96839862 51.12653245 1.28102338 41.98069837 1.20581055 32.61132812 C1.18718619 30.20953046 1.18530436 27.80811345 1.18554688 25.40625 C1.18064208 23.85937168 1.17481836 22.31249593 1.16796875 20.765625 C1.16685593 20.0573053 1.1657431 19.3489856 1.16459656 18.61920166 C1.12943021 14.95090992 0.82191438 11.57310067 0 8 C-0.11678799 5.32321927 -0.0454506 2.68158543 0 0 Z " fill="#525252" transform="translate(415,202)"/>
<path d="M0 0 C0 0.33 0 0.66 0 1 C-0.92635254 1.01981934 -1.85270508 1.03963867 -2.80712891 1.06005859 C-6.31499733 1.13915716 -9.82251964 1.22586824 -13.33007812 1.31738281 C-14.83488978 1.35516319 -16.33977625 1.39009426 -17.84472656 1.421875 C-30.14143103 1.68455494 -42.156119 2.35572892 -54 6 C-55.51926438 6.27950037 -57.04031396 6.54937576 -58.5625 6.8125 C-64.26380358 7.88094706 -69.52209179 9.9582512 -74.8984375 12.07421875 C-78.06375898 13.01903133 -78.98929585 12.92990795 -82 12 C-78.85727971 10.86617359 -75.71030814 9.7446156 -72.5625 8.625 C-71.68400391 8.30789062 -70.80550781 7.99078125 -69.90039062 7.6640625 C-65.5971681 6.13967371 -61.37028003 4.79025399 -56.90234375 3.8359375 C-53.23985544 3.42095833 -53.23985544 3.42095833 -52 2 C-34.9623837 -1.21066497 -17.25101416 -0.19309728 0 0 Z " fill="#686868" transform="translate(290,99)"/>
<path d="M0 0 C0.66 0.33 1.32 0.66 2 1 C-2.03966311 5.81174889 -6.27624706 10.40458524 -10.6875 14.875 C-11.59886719 15.80054688 -12.51023438 16.72609375 -13.44921875 17.6796875 C-15.62609187 19.6598753 -17.30478412 20.90171531 -20 22 C-16.08186783 13.05599148 -7.30215864 6.18007752 0 0 Z " fill="#3B3B3B" transform="translate(162,136)"/>
<path d="M0 0 C0.66 0.33 1.32 0.66 2 1 C-15.04216867 20.34738956 -15.04216867 20.34738956 -20 22 C-16.26080653 13.43921495 -8.03669738 6.86989807 -1 1 C-0.67 0.67 -0.34 0.34 0 0 Z " fill="#C6C6C6" transform="translate(178,302)"/>
<path d="M0 0 C-1.47767788 3.41963107 -3.40604656 5.66351006 -6.02734375 8.29296875 C-6.81947266 9.08767578 -7.61160156 9.88238281 -8.42773438 10.70117188 C-9.25595703 11.52166016 -10.08417969 12.34214844 -10.9375 13.1875 C-11.76185547 14.01958984 -12.58621094 14.85167969 -13.43554688 15.70898438 C-14.22896484 16.49982422 -15.02238281 17.29066406 -15.83984375 18.10546875 C-16.56550537 18.82887451 -17.29116699 19.55228027 -18.03881836 20.29760742 C-20 22 -20 22 -23 23 C-21.48968674 19.46183947 -19.42406644 17.16633853 -16.71875 14.453125 C-15.87699219 13.60878906 -15.03523438 12.76445313 -14.16796875 11.89453125 C-13.28753906 11.02183594 -12.40710938 10.14914063 -11.5 9.25 C-10.61957031 8.36183594 -9.73914063 7.47367187 -8.83203125 6.55859375 C-7.99027344 5.71941406 -7.14851563 4.88023438 -6.28125 4.015625 C-5.50845703 3.24508789 -4.73566406 2.47455078 -3.93945312 1.68066406 C-2 0 -2 0 0 0 Z " fill="#CECECE" transform="translate(122,96)"/>
<path d="M0 0 C0.33 0 0.66 0 1 0 C1.30258108 36.86368579 1.30258108 36.86368579 -2 49 C-2.33 49 -2.66 49 -3 49 C-3.2051658 43.35794042 -2.79637519 37.96586637 -2.0625 32.375 C-0.66800658 21.62557458 -0.35304248 10.82520078 0 0 Z " fill="#BEBEBE" transform="translate(417,228)"/>
<path d="M0 0 C0.66 0.33 1.32 0.66 2 1 C0.12660182 3.04315594 -1.74866634 5.08454259 -3.625 7.125 C-4.14707031 7.69476563 -4.66914062 8.26453125 -5.20703125 8.8515625 C-8.71584189 12.66360369 -12.31428818 16.358561 -16 20 C-16.99 19.67 -17.98 19.34 -19 19 C-12.73 12.73 -6.46 6.46 0 0 Z " fill="#363636" transform="translate(107,82)"/>
<path d="M0 0 C9.9 0 19.8 0 30 0 C30 4 30 4 28.25 5.921875 C27.5075 6.52515625 26.765 7.1284375 26 7.75 C25.2575 8.36359375 24.515 8.9771875 23.75 9.609375 C22.88375 10.29773438 22.88375 10.29773438 22 11 C22 10.01 22 9.02 22 8 C23.96185416 6.28859531 25.96302383 4.62126675 28 3 C28.33 2.34 28.66 1.68 29 1 C19.43 1 9.86 1 0 1 C0 0.67 0 0.34 0 0 Z " fill="#CBCBCB" transform="translate(241,142)"/>
<path d="M0 0 C0.66 0.33 1.32 0.66 2 1 C-3.62638979 7.49096506 -9.44097693 13.44886464 -16 19 C-16 16 -16 16 -14.53125 14.19067383 C-13.8609375 13.53607178 -13.190625 12.88146973 -12.5 12.20703125 C-11.778125 11.49482422 -11.05625 10.78261719 -10.3125 10.04882812 C-9.549375 9.31083984 -8.78625 8.57285156 -8 7.8125 C-6.8553125 6.68811523 -6.8553125 6.68811523 -5.6875 5.54101562 C-3.79819161 3.68713177 -1.90224794 1.84058931 0 0 Z " fill="#C8C8C8" transform="translate(174,165)"/>
<path d="M0 0 C-0.49612997 8.10345611 -3.320085 15.40525933 -6 23 C-7.12140434 19.68811918 -6.87708979 17.92110803 -5.625 14.6875 C-4.19680344 10.74854692 -3.44250428 7.15954023 -3 3 C-4.98 3 -6.96 3 -9 3 C-4.5 0 -4.5 0 0 0 Z " fill="#898989" transform="translate(205,246)"/>
<path d="M0 0 C0.33 0 0.66 0 1 0 C0.67 8.25 0.34 16.5 0 25 C-0.66 25 -1.32 25 -2 25 C-2.05421223 21.95809137 -2.09377548 18.91716001 -2.125 15.875 C-2.15013672 14.59109375 -2.15013672 14.59109375 -2.17578125 13.28125 C-2.21306681 8.43412707 -1.89580643 4.55292095 0 0 Z " fill="#545454" transform="translate(189,298)"/>
<path d="M0 0 C0.66 0.33 1.32 0.66 2 1 C0.515 3.475 0.515 3.475 -1 6 C-0.02417969 5.97679687 0.95164062 5.95359375 1.95703125 5.9296875 C3.22933594 5.91164062 4.50164062 5.89359375 5.8125 5.875 C7.07707031 5.85179687 8.34164063 5.82859375 9.64453125 5.8046875 C13 6 13 6 16 8 C4.615 7.505 4.615 7.505 -7 7 C-5.66667905 3.00003714 -3.5042173 2.16217663 0 0 Z " fill="#9A9A9A" transform="translate(285,200)"/>
<path d="M0 0 C0.66 0.33 1.32 0.66 2 1 C0.73034469 2.43854058 -0.54077218 3.87579127 -1.8125 5.3125 C-2.52019531 6.11300781 -3.22789062 6.91351563 -3.95703125 7.73828125 C-5.59337122 9.54983162 -7.25272168 11.29681703 -9 13 C-9.66 12.67 -10.32 12.34 -11 12 C-3.70159453 3.55353075 -3.70159453 3.55353075 0 0 Z " fill="#545454" transform="translate(159,301)"/>
<path d="M0 0 C0.66 0.33 1.32 0.66 2 1 C1.20890398 2.27118864 0.41709922 3.54193623 -0.375 4.8125 C-0.81585938 5.52019531 -1.25671875 6.22789062 -1.7109375 6.95703125 C-2.78188476 8.65432039 -3.88676239 10.33014358 -5 12 C-4.54177532 8.53058454 -4.10868317 5.32604951 -3 2 C-2.01 1.34 -1.02 0.68 0 0 Z " fill="#A9A9A9" transform="translate(223,273)"/>
<path d="M0 0 C1.0326802 2.78823655 1.04509293 3.8677274 0.0625 6.75 C-0.288125 7.4925 -0.63875 8.235 -1 9 C0.65 8.67 2.3 8.34 4 8 C3.67 8.66 3.34 9.32 3 10 C-0.0625 10.625 -0.0625 10.625 -3 11 C-2.69078116 9.54096742 -2.37751201 8.08279278 -2.0625 6.625 C-1.88847656 5.81289062 -1.71445313 5.00078125 -1.53515625 4.1640625 C-1 2 -1 2 0 0 Z " fill="#737373" transform="translate(228,248)"/>
<path d="M0 0 C-0.33 3.96 -0.66 7.92 -1 12 C-1.33 12 -1.66 12 -2 12 C-2 8.7 -2 5.4 -2 2 C-3.32 1.67 -4.64 1.34 -6 1 C-3 0 -3 0 0 0 Z " fill="#9B9B9B" transform="translate(301,240)"/>
<path d="M0 0 C0.33 0 0.66 0 1 0 C1.20674944 5.78898419 0.59162079 10.42932723 -1 16 C-1.33 16 -1.66 16 -2 16 C-2.2358396 10.22192976 -1.86783046 5.48675196 0 0 Z " fill="#787878" transform="translate(416,261)"/>
<path d="M0 0 C0.33 1.32 0.66 2.64 1 4 C2.65 3.67 4.3 3.34 6 3 C3.82575883 5.50037734 2.26954202 6.43628586 -1 7 C-1.04254356 5.00045254 -1.04080783 2.99958364 -1 1 C-0.67 0.67 -0.34 0.34 0 0 Z " fill="#767676" transform="translate(241,207)"/>
<path d="M0 0 C2.62374802 5.24749603 3.09534716 8.08847633 3 14 C2.67 14 2.34 14 2 14 C2 12.02 2 10.04 2 8 C1.34 8 0.68 8 0 8 C0 5.36 0 2.72 0 0 Z " fill="#5E5E5E" transform="translate(432,194)"/>
<path d="M0 0 C0.66 0.33 1.32 0.66 2 1 C0.515 3.475 0.515 3.475 -1 6 C-2.32 5.67 -3.64 5.34 -5 5 C-3.35 3.35 -1.7 1.7 0 0 Z " fill="#BFBFBF" transform="translate(285,200)"/>
</svg>
